PathFileType	4	(X/Y/Z)	C:\Users\Biomechanik\SynologyDrive\AlexP\Athlete_03\Athlete_3_25_03_31\Static_01\marker_experimental.trc
DataRate	CameraRate	NumFrames	NumMarkers	Units	OrigDataRate	OrigDataStartFrame	OrigNumFrames
200	200	4	80	mm	200	279	37
Frame#	Time	BL			BR			GLAB			RFHD			LFHD			C7			T6			SPINMOL			SPINM2			SPINM3			T12			BELTOL			BELT2			BELT3			SACROL			SACR2			SACR3			LASI			RASI			LPSI			RPSI			LTHOL			LTH2			LTH3			LKNEL			LKNEM			LFIB			LSHAOL			LSHA2			LSHA3			LMALL			LMALM			LHEE			LTOE			LM5			RTHOL			RTH2			RTH3			RKNEL			RKNEM			RFIB			RSHAOL			RSHA2			RSHA3			RMALL			RMALM			RHEE			RTOE			RM5			STRN			XIPH			LACR			LUAOL			LUA2			LUA3			LCUBL			LCUBM			LLAOL			LLA2			LLA3			LWRR			LWRU			RACR			RUAOL			RUA2			RUA3			RCUBL			RCUBM			RLAOL			RLA2			RLA3			RWRR			RWRU			*73			LKJCWK			RKJCWK			RAJCWK			LAJCWK			RHJCWK			LHJCWK
		X1	Y1	Z1	X2	Y2	Z2	X3	Y3	Z3	X4	Y4	Z4	X5	Y5	Z5	X6	Y6	Z6	X7	Y7	Z7	X8	Y8	Z8	X9	Y9	Z9	X10	Y10	Z10	X11	Y11	Z11	X12	Y12	Z12	X13	Y13	Z13	X14	Y14	Z14	X15	Y15	Z15	X16	Y16	Z16	X17	Y17	Z17	X18	Y18	Z18	X19	Y19	Z19	X20	Y20	Z20	X21	Y21	Z21	X22	Y22	Z22	X23	Y23	Z23	X24	Y24	Z24	X25	Y25	Z25	X26	Y26	Z26	X27	Y27	Z27	X28	Y28	Z28	X29	Y29	Z29	X30	Y30	Z30	X31	Y31	Z31	X32	Y32	Z32	X33	Y33	Z33	X34	Y34	Z34	X35	Y35	Z35	X36	Y36	Z36	X37	Y37	Z37	X38	Y38	Z38	X39	Y39	Z39	X40	Y40	Z40	X41	Y41	Z41	X42	Y42	Z42	X43	Y43	Z43	X44	Y44	Z44	X45	Y45	Z45	X46	Y46	Z46	X47	Y47	Z47	X48	Y48	Z48	X49	Y49	Z49	X50	Y50	Z50	X51	Y51	Z51	X52	Y52	Z52	X53	Y53	Z53	X54	Y54	Z54	X55	Y55	Z55	X56	Y56	Z56	X57	Y57	Z57	X58	Y58	Z58	X59	Y59	Z59	X60	Y60	Z60	X61	Y61	Z61	X62	Y62	Z62	X63	Y63	Z63	X64	Y64	Z64	X65	Y65	Z65	X66	Y66	Z66	X67	Y67	Z67	X68	Y68	Z68	X69	Y69	Z69	X70	Y70	Z70	X71	Y71	Z71	X72	Y72	Z72	X73	Y73	Z73	X74	Y74	Z74	X75 	Y75 	Z75 	X76 	Y76 	Z76 	X77 	Y77 	Z77 	X78 	Y78 	Z78 	X79 	Y79 	Z79 	X80 	Y80 	Z80

280	1.395	960.7592	36.2035	-1933.5151	1063.1471	32.9277	86.6443	372.6287	1600.3588	-1181.7391	322.0332	1627.71	-1119.7324	333.1393	1628.5453	-1255.5433	145.1345	1439.0588	-1202.3365	nan	nan	nan	102.926	1230.1323	-1234.9633	96.942	1220.9172	-1185.5959	109.9127	1165.7351	-1220.2972	125.7529	1102.4646	-1217.5829	97.6964	1081.7468	-1232.0098	97.2996	1078.225	-1181.8065	90.3199	1018.825	-1212.0383	105.6931	959.8878	-1236.8438	106.5188	957.821	-1185.4116	87.2975	900.6341	-1212.8992	335.8309	934.5117	-1329.6631	328.5285	925.1964	-1082.1996	118.5975	977.2854	-1255.6332	119.2708	968.189	-1171.1464	193.1442	683.8336	-1398.767	143.2312	630.8596	-1366.3519	189.3948	623.9956	-1385.283	236.4806	487.7267	-1382.1855	255.1078	462.1206	-1262.5927	193.56	426.0638	-1387.0145	159.5081	329.0933	-1402.8412	110.4365	267.4871	-1389.7871	159.1787	267.2571	-1401.4041	142.7871	81.4936	-1381.4142	183.6699	89.7129	-1295.6409	95.0433	67.5952	-1318.254	309.9082	47.7164	-1348.6871	253.0018	31.2274	-1443.6475	162.2632	696.5738	-1023.6227	212.4829	637.5608	-1004.2277	169.0703	635.2651	-1028.9403	201.8946	496.1141	-1025.6176	239.5758	463.5826	-1146.9386	154.7899	432.5935	-1028.87	120.2245	347.0945	-1018.5864	149.5147	275.5909	-1003.3495	108.184	286.5418	-1028.778	124.9659	85.0911	-1041.8245	189.0952	95.6176	-1114.6035	90.573	63.8018	-1115.0834	292.6976	47.6139	-1043.7261	216.4097	39.4311	-964.1553	326.3052	1364.8669	-1198.3762	358.0412	1219.6312	-1200.6825	204.6908	1435.7068	-1348.5693	171.221	1410.3627	-1487.3918	160.3039	1385.2894	-1547.777	203.7826	1413.4335	-1544.4924	184.9473	1401.2808	-1652.0135	258.5767	1311.3461	-1650.4462	182.9926	1375.5919	-1742.6191	176.2508	1316.1666	-1795.3512	187.8363	1364.6866	-1803.5699	200.54	1355.4685	-1908.688	279.8944	1353.1094	-1901.7097	205.1052	1429.4229	-1058.2911	161.7289	1410.9781	-936.4229	179.0935	1408.2808	-872.6251	132.6558	1387.991	-882.803	154.6511	1390.6576	-768.2042	212.6142	1296.1752	-768.0751	143.1415	1370.734	-669.322	158.1916	1413.2233	-603.4203	142.2581	1365.2896	-607.0133	153.2773	1377.4282	-514.52	231.8874	1353.9078	-502.0409	105.0618	1266.9039	-1212.8656	245.7942	474.9237	-1322.3891	220.7352	479.8484	-1086.2781	155.3088	79.8272	-1077.996	160.9914	75.0546	-1338.9648	269.0032	850.6455	-1121.722	274.2471	857.3348	-1299.42
281	1.4	960.7562	36.2111	-1933.5083	1063.149	32.9253	86.661	372.6696	1600.3489	-1181.7177	322.0457	1627.6731	-1119.7888	333.1553	1628.5295	-1255.5468	145.1289	1439.0576	-1202.3235	nan	nan	nan	102.9166	1230.1257	-1234.9645	96.9453	1220.9105	-1185.6064	109.9224	1165.7142	-1220.3016	125.7303	1102.4629	-1217.5835	97.7218	1081.7371	-1232.0167	97.3094	1078.1877	-1181.8135	90.5227	1018.8958	-1212.0615	105.6969	959.8846	-1236.8682	106.5308	957.8083	-1185.4136	87.3119	900.6313	-1212.9091	335.8387	934.5125	-1329.6589	328.5352	925.2013	-1082.1884	118.5954	977.2852	-1255.6534	119.2861	968.1782	-1171.1658	193.1806	683.8125	-1398.7979	143.2444	630.8618	-1366.3579	189.4209	624.0046	-1385.2883	236.4933	487.7198	-1382.1946	255.0319	462.0768	-1262.671	193.5674	426.0609	-1387.0243	159.5194	329.0856	-1402.8627	110.4437	267.4891	-1389.7976	159.1892	267.2514	-1401.4058	142.8032	81.5001	-1381.4303	183.6644	89.7098	-1295.6522	95.0436	67.5949	-1318.2592	309.9077	47.7118	-1348.6807	253.0207	31.2058	-1443.6324	162.2961	696.5662	-1023.6368	212.5015	637.56	-1004.2251	169.0691	635.2568	-1028.9438	201.8974	496.1092	-1025.6266	239.5868	463.5736	-1146.9409	154.7959	432.5922	-1028.8823	120.2283	347.0955	-1018.5905	149.5241	275.5984	-1003.3447	108.2007	286.5534	-1028.7716	124.9664	85.0943	-1041.8397	189.073	95.6264	-1114.5909	90.5964	63.774	-1115.0735	292.706	47.624	-1043.7262	216.4077	39.3959	-964.1773	326.2826	1364.868	-1198.3666	358.0281	1219.6113	-1200.702	204.6798	1435.7046	-1348.5566	171.2193	1410.3497	-1487.3911	160.2258	1385.4138	-1547.8079	203.7736	1413.4506	-1544.4758	184.9206	1401.288	-1652.0039	258.5831	1311.3629	-1650.4524	182.89	1375.5934	-1742.6505	176.204	1316.1426	-1795.3485	187.8265	1364.6866	-1803.549	200.443	1355.4469	-1908.7223	279.8707	1353.1116	-1901.7356	205.0901	1429.4337	-1058.2797	161.7152	1410.9497	-936.4265	179.0673	1408.3977	-872.6828	132.6693	1387.9437	-882.8163	154.6683	1390.6299	-768.1897	212.636	1296.1306	-768.0671	143.1522	1370.6978	-669.3224	158.2244	1413.1831	-603.4119	142.2718	1365.2347	-607.0362	153.3438	1377.3674	-514.5558	231.9192	1353.8251	-502.0475	105.0641	1266.8973	-1212.8627	245.7626	474.8983	-1322.4328	220.7421	479.8414	-1086.2838	155.2974	79.8332	-1077.9973	160.9975	75.0561	-1338.9778	269.0135	850.6473	-1121.7132	274.258	857.3335	-1299.417
282	1.405	960.7542	36.2189	-1933.5327	1063.1554	32.9227	86.6423	372.6844	1600.2876	-1181.6964	322.0468	1627.6643	-1119.7751	333.1609	1628.5093	-1255.5299	145.1161	1439.0446	-1202.3159	nan	nan	nan	102.9315	1230.1055	-1234.9595	96.9215	1220.8896	-1185.6061	109.9406	1165.7019	-1220.2968	125.7467	1102.4458	-1217.5919	97.6808	1081.7135	-1232.0365	97.3125	1078.1937	-1181.8107	90.37	1018.7708	-1212.0018	105.7304	959.8967	-1236.8562	106.558	957.7857	-1185.4453	87.3215	900.6155	-1212.9142	335.8532	934.5294	-1329.6798	328.5458	925.1855	-1082.2025	118.635	977.2639	-1255.6484	119.3018	968.1699	-1171.1748	193.1856	683.844	-1398.8079	143.2851	630.8622	-1366.3625	189.4359	623.9926	-1385.3221	236.5027	487.7438	-1382.2158	254.9705	462.037	-1262.7603	193.5779	426.0579	-1387.0336	159.5281	329.0822	-1402.8634	110.4443	267.5035	-1389.796	159.1902	267.2575	-1401.4092	142.8015	81.5021	-1381.4177	183.6687	89.7168	-1295.645	95.0468	67.5912	-1318.26	309.9139	47.7151	-1348.6732	253.0474	31.1517	-1443.6106	162.2867	696.5806	-1023.6364	212.5055	637.5552	-1004.2375	169.0907	635.2568	-1028.9514	201.9028	496.1097	-1025.6394	239.6515	463.9697	-1147.2122	154.8045	432.5898	-1028.8832	120.2363	347.0921	-1018.6016	149.5288	275.5893	-1003.356	108.1998	286.5529	-1028.7802	124.9681	85.097	-1041.855	189.0742	95.6473	-1114.6116	90.6776	63.6832	-1115.076	292.7007	47.6059	-1043.7214	216.4152	39.4316	-964.1517	326.2775	1364.8505	-1198.3743	358.0201	1219.5891	-1200.7014	204.6506	1435.701	-1348.5587	171.1923	1410.3315	-1487.3903	160.1565	1385.2029	-1547.7603	203.762	1413.4489	-1544.4657	184.8947	1401.2833	-1652.006	258.5998	1311.3616	-1650.4459	182.9553	1375.5981	-1742.5887	176.2527	1316.1561	-1795.301	187.7867	1364.6942	-1803.561	200.4098	1355.4454	-1908.7145	279.8347	1353.1222	-1901.7048	205.0831	1429.4313	-1058.2648	161.7021	1410.9189	-936.4255	179.0584	1408.3586	-872.682	132.6839	1387.8906	-882.8348	154.671	1390.603	-768.1937	212.6815	1296.1074	-768.0363	143.1687	1370.6653	-669.3223	158.2785	1413.1309	-603.4042	142.2967	1365.1959	-607.0449	153.6101	1377.1162	-514.6633	231.9512	1353.7419	-502.0474	105.0766	1266.8827	-1212.8589	245.7366	474.8904	-1322.488	220.7771	480.0397	-1086.4258	155.2988	79.8451	-1078.012	160.9994	75.0604	-1338.9661	269.0292	850.6333	-1121.742	274.2763	857.3427	-1299.445
283	1.41	960.7502	36.2287	-1933.5236	1063.1489	32.931	86.6451	372.4118	1600.4261	-1182.0308	322.0725	1627.6464	-1119.7469	333.1822	1628.4961	-1255.5328	145.1047	1439.04	-1202.3026	nan	nan	nan	102.9154	1230.1006	-1234.9484	96.9295	1220.8839	-1185.6062	109.9541	1165.6948	-1220.2902	125.7368	1102.4315	-1217.6016	97.6571	1081.6692	-1232.0623	97.3205	1078.1729	-1181.8262	90.3652	1018.7677	-1212.0052	105.7727	959.8838	-1236.8673	106.5407	957.7887	-1185.4476	87.3437	900.6083	-1212.9307	335.8546	934.5292	-1329.6946	328.5524	925.1982	-1082.2115	118.6477	977.2657	-1255.6572	119.3088	968.1624	-1171.1897	193.2165	683.8651	-1398.8453	143.2903	630.8697	-1366.4053	189.4437	623.9839	-1385.3256	236.5255	487.7367	-1382.2363	254.9095	462.0086	-1262.8364	193.5914	426.0604	-1387.0413	159.5423	329.0836	-1402.8756	110.4477	267.5058	-1389.8062	159.1994	267.2574	-1401.4058	142.8038	81.5056	-1381.4238	183.6724	89.7138	-1295.6406	95.0509	67.5935	-1318.2535	309.9147	47.7331	-1348.6838	252.9871	31.2449	-1443.6394	162.3066	696.5725	-1023.6476	212.53	637.5557	-1004.249	169.1208	635.2601	-1028.9546	201.9312	496.1222	-1025.6444	239.6589	463.9835	-1147.2086	154.8228	432.5881	-1028.8989	120.2475	347.0966	-1018.6088	149.5415	275.5937	-1003.3639	108.2054	286.5509	-1028.7932	124.9769	85.0976	-1041.8348	189.1007	95.5518	-1114.5901	90.5913	63.7887	-1115.0767	292.6987	47.6029	-1043.7192	216.4105	39.3893	-964.1809	326.2776	1364.8311	-1198.3625	358.0111	1219.5986	-1200.7168	204.6465	1435.7019	-1348.551	171.1852	1410.3505	-1487.3655	160.2034	1385.2933	-1547.7721	203.7535	1413.4491	-1544.4406	184.9035	1401.2784	-1652.0082	258.5867	1311.3658	-1650.4371	182.9341	1375.59	-1742.5848	176.2468	1316.1508	-1795.3066	187.7862	1364.693	-1803.5447	200.4229	1355.453	-1908.6924	279.8141	1353.1287	-1901.6887	205.0735	1429.4138	-1058.2695	161.7003	1410.8835	-936.407	179.0366	1408.3309	-872.6862	132.6897	1387.8368	-882.8525	154.6929	1390.5752	-768.1805	212.6995	1296.073	-768.0153	143.2035	1370.6403	-669.3094	158.3167	1413.0962	-603.4053	142.3166	1365.1648	-607.0413	153.8876	1376.926	-514.8269	231.9836	1353.6631	-502.0512	105.0572	1266.8794	-1212.864	245.7175	474.8726	-1322.5364	220.7951	480.0528	-1086.4265	155.3167	79.7976	-1077.9906	161.0029	75.0605	-1338.9657	269.0375	850.642	-1121.7483	274.2809	857.342	-1299.451
